# xmcd
#
# Track frame offsets: 
#        150
#        19228
#        30128
#        44465
#        58140
#        70392
#        82005
#        97615
#        111589
#        123232
#        138957
#        159324
#        173295
#        187900
#        201485
#        214894
#
# Disc length: 3058 seconds
#
# Revision: 2
# Processed by: cddbd v1.5.2PL0 Copyright (c) Steve Scherf et al.
# Submitted via: ExactAudioCopyFreeDBPlugin 1.0
#
DISCID=d50bf010
DTITLE=Kris Kristofferson - kris kristofferson, the greatest hits - CD
DTITLE=1 of 3 - SMM 513401-2
DYEAR=2003
DGENRE=Country
TTITLE0=Me And Bobby Gee (Album Version), 1971
TTITLE1=Jesus Was A Capricorn (Owed To John Prine) (Album Version), 19
TTITLE1=72
TTITLE2=Josie, 1972
TTITLE3=Lover Please (Album Version), 1974
TTITLE4=Prove It To You One More Time Again, 1979
TTITLE5=Jesse Younger (Album Version), 1972
TTITLE6=Easy, Come On (Album Version), s.a.
TTITLE7=I May Smoke Too Much, 1974
TTITLE8=Late John Garfield Blues (Live), 1992
TTITLE9=If You Don't Like Hank Williams, 1975
TTITLE10=Sunday Morning Comin' Down, 1969
TTITLE11=Nobody Loves Anybody Anymore, 1980
TTITLE12=Forever In Your Love, 1978
TTITLE13=When I Loved Her (Album Version), 1988
TTITLE14=The Best Of All Possible Worlds (Album Version), 1971
TTITLE15=The Taker, 1971
EXTD=(c)2003 Sony Music Media - Sony Music Entertainment Germany\nCD 1
EXTD=of 3\nOrder: SMM 513401 2\nCatalog: 5134012000/A\nisbn 509975134
EXTD=0126
EXTT0=
EXTT1=
EXTT2=
EXTT3=
EXTT4=
EXTT5=
EXTT6=
EXTT7=
EXTT8=
EXTT9=
EXTT10=
EXTT11=
EXTT12=
EXTT13=
EXTT14=
EXTT15=
PLAYORDER=
